<?xml version="1.0" standalone="no"?>
<!DOCTYPE svg PUBLIC "-//W3C//DTD SVG 20010904//EN"
 "http://www.w3.org/TR/2001/REC-SVG-20010904/DTD/svg10.dtd">
<svg version="1.0" xmlns="http://www.w3.org/2000/svg"
 width="512.000000pt" height="512.000000pt" viewBox="0 0 512.000000 512.000000"
 preserveAspectRatio="xMidYMid meet">

<g transform="translate(0.000000,512.000000) scale(0.100000,-0.100000)"
fill="#000000" stroke="none">
<path style="fill: #8412fb" d="M3961 4309 c-135 -26 -259 -140 -301 -276 -86 -279 134 -554 423
-530 230 20 408 245 368 468 -41 236 -256 384 -490 338z"/>
<path style="fill: #8412fb" d="M1538 4106 c-43 -32 -38 -103 8 -125 18 -8 249 -11 828 -11 798 0
803 0 830 21 34 27 36 77 3 107 l-23 22 -815 0 c-655 -1 -817 -3 -831 -14z"/>
<path style="fill: #8412fb" d="M2911 3695 c-207 -47 -380 -144 -536 -302 -205 -206 -234 -310 -116
-416 64 -58 159 -73 238 -38 28 13 65 48 115 106 167 199 343 277 551 246 46
-7 89 -16 97 -21 10 -6 -12 -55 -97 -212 -61 -111 -150 -282 -198 -378 -146
-293 -205 -382 -319 -486 -155 -142 -341 -207 -501 -174 -33 6 -98 30 -144 51
-99 46 -142 55 -197 40 -99 -27 -167 -111 -168 -209 0 -102 43 -153 189 -223
155 -73 249 -94 430 -93 119 0 168 5 235 21 194 49 346 133 492 272 l98 93 57
-22 c189 -75 507 -272 613 -379 64 -64 114 -155 256 -461 53 -113 107 -220
121 -239 49 -64 137 -86 224 -56 87 31 139 98 139 182 0 47 -11 79 -86 241
-164 355 -247 507 -323 594 -62 70 -312 253 -488 357 -40 24 -73 46 -73 48 0
9 176 338 287 536 93 166 108 188 127 183 158 -43 398 -46 532 -7 102 29 212
82 301 143 140 96 319 294 344 379 31 102 -45 204 -172 230 -104 22 -145 -2
-283 -165 -70 -82 -173 -151 -273 -183 -74 -23 -95 -25 -186 -21 -135 7 -211
35 -450 167 -296 163 -408 200 -632 207 -100 3 -158 0 -204 -11z"/>
<path style="fill: #8412fb" d="M144 3380 c-26 -10 -54 -48 -54 -71 0 -9 9 -28 21 -43 l20 -26 824 0
824 0 21 22 c37 40 22 98 -31 117 -39 13 -1592 14 -1625 1z"/>
<path style="fill: #8412fb" d="M635 2528 c-48 -28 -57 -70 -24 -112 l20 -26 824 0 824 0 20 26 c34
43 26 86 -20 109 -24 13 -145 15 -826 15 -581 -1 -803 -4 -818 -12z"/>
<path style="fill: #8412fb" d="M43 1580 c-47 -19 -56 -78 -18 -115 l24 -25 736 0 736 0 24 25 c30
29 32 64 6 96 l-19 24 -734 2 c-410 1 -743 -2 -755 -7z"/>
</g>
</svg>
